<svg xmlns="http://www.w3.org/2000/svg" xmlns:xlink="http://www.w3.org/1999/xlink" width="500" zoomAndPan="magnify" viewBox="0 0 375 374.999991" height="500" preserveAspectRatio="xMidYMid meet" version="1.0"><defs><g/><clipPath id="7fd15fa297"><path d="M 37.5 174.476562 L 337.5 174.476562 L 337.5 205.324219 L 37.5 205.324219 Z M 37.5 174.476562 " clip-rule="nonzero"/></clipPath></defs><path stroke-linecap="butt" transform="matrix(0.75, 0, 0, 0.75, 28.907533, 93.324992)" fill="none" stroke-linejoin="miter" d="M -5.10067 279.30107 C 8.409748 266.603153 17.982665 252.32711 23.618082 236.478151 C 25.763916 230.41565 26.842041 224.254192 26.842041 217.998983 L 26.842041 12.681261 L 46.821209 12.681261 L 46.821209 217.998983 C 46.821209 218.5719 46.821209 219.170858 46.821209 219.79065 C 46.821209 241.275026 36.842042 261.207319 16.883707 279.587529 C 12.013915 284.077112 7.909748 287.801071 4.565998 290.759404 Z M 211.941011 163.717729 L 121.633714 163.717729 L 102.873296 217.998983 L 83.748295 217.998983 L 158.013924 12.681261 L 175.847259 12.681261 L 252.758722 217.998983 L 231.347263 217.998983 Z M 126.576422 149.035437 L 206.711844 149.035437 L 165.894133 34.957304 Z M 338.946228 217.998983 L 338.946228 30.301054 L 280.868099 30.301054 L 282.373308 12.681261 L 415.217066 12.681261 L 413.784775 30.301054 L 357.425396 30.301054 L 357.425396 217.998983 Z M 338.946228 217.998983 " stroke="#ffffff" stroke-width="19.433311" stroke-opacity="1" stroke-miterlimit="4"/><g fill="#000000" fill-opacity="1"><g transform="translate(32.11847, 256.824982)"><g><path d="M -7.046875 45.984375 C 3.078125 36.453125 10.265625 25.742188 14.515625 13.859375 C 16.128906 9.316406 16.9375 4.695312 16.9375 0 L 16.9375 -154 L 31.90625 -154 L 31.90625 0 C 31.90625 0.4375 31.90625 0.875 31.90625 1.3125 C 31.90625 17.445312 24.421875 32.410156 9.453125 46.203125 C 5.785156 49.578125 2.707031 52.363281 0.21875 54.5625 Z M -7.046875 45.984375 "/></g></g></g><g fill="#000000" fill-opacity="1"><g transform="translate(81.837805, 256.824982)"><g><path d="M 106.046875 -40.703125 L 38.28125 -40.703125 L 24.203125 0 L 9.90625 0 L 65.5625 -154 L 78.984375 -154 L 136.625 0 L 120.5625 0 Z M 42.015625 -51.703125 L 102.078125 -51.703125 L 71.5 -137.28125 Z M 42.015625 -51.703125 "/></g></g></g><g fill="#000000" fill-opacity="1"><g transform="translate(229.67589, 256.824982)"><g><path d="M 53.453125 0 L 53.453125 -140.796875 L 9.90625 -140.796875 L 11 -154 L 110.65625 -154 L 109.5625 -140.796875 L 67.3125 -140.796875 L 67.3125 0 Z M 53.453125 0 "/></g></g></g><g clip-path="url(#7fd15fa297)"><path fill="#ffffff" d="M 37.5 174.476562 L 337.550781 174.476562 L 337.550781 205.324219 L 37.5 205.324219 Z M 37.5 174.476562 " fill-opacity="1" fill-rule="nonzero"/></g><path stroke-linecap="butt" transform="matrix(0.75, 0, 0, 0.75, 29.745918, 173.399329)" fill="none" stroke-linejoin="miter" d="M 34.45857 23.514438 L 34.45857 12.259229 L 26.333569 12.259229 L 26.333569 14.837354 L 31.635653 14.837354 L 31.635653 23.514438 C 31.635653 27.181105 30.114819 29.47798 25.078361 29.47798 C 24.771069 29.47798 24.437736 29.47798 24.099194 29.451939 L 24.099194 32.108189 C 24.380444 32.108189 24.687736 32.134231 24.942944 32.134231 C 31.854403 32.134231 34.45857 29.113397 34.45857 23.514438 Z M 63.859613 27.045689 L 71.812739 27.045689 L 73.682531 31.998814 L 76.713781 31.998814 L 68.843989 12.149854 L 66.77628 12.149854 L 58.906488 31.998814 L 61.953363 31.998814 Z M 70.771072 24.38423 L 64.896072 24.38423 L 67.833572 16.655063 Z M 113.620033 29.170689 L 104.401283 29.170689 L 104.401283 12.399854 L 101.573157 12.399854 L 101.573157 31.998814 L 113.620033 31.998814 Z M 137.250243 22.25923 C 137.250243 24.972772 138.427327 27.462355 140.10441 29.25923 C 141.807535 31.050897 144.276285 32.134231 146.937744 32.134231 C 151.500244 32.134231 155.083578 29.113397 156.203369 24.66548 L 153.427328 24.66548 C 152.427327 27.63423 149.901286 29.342564 146.937744 29.342564 C 145.062744 29.342564 143.182535 28.556105 141.953368 27.269647 C 140.724202 25.97798 139.989827 24.212355 139.989827 22.25923 C 139.989827 20.243605 140.750243 18.504021 141.97941 17.212355 C 143.208577 15.931105 145.062744 15.035271 146.937744 15.035271 C 149.817952 15.035271 152.224202 16.597771 153.265869 19.54048 L 156.062744 19.54048 C 154.942953 15.113396 151.411702 12.227979 146.937744 12.227979 C 144.276285 12.227979 141.724202 13.462354 140.015868 15.233188 C 138.333577 17.024855 137.250243 19.483188 137.250243 22.25923 Z M 180.646079 22.19673 C 180.646079 27.858189 185.156496 32.363397 190.812747 32.363397 C 196.468997 32.363397 201.000247 27.858189 201.000247 22.19673 C 201.000247 16.545688 196.468997 12.004021 190.812747 12.004021 C 185.156496 12.004021 180.646079 16.545688 180.646079 22.19673 Z M 183.557538 22.19673 C 183.557538 18.170688 186.776288 14.915479 190.812747 14.915479 C 194.843997 14.915479 198.088789 18.170688 198.088789 22.19673 C 198.088789 26.22798 194.843997 29.451939 190.812747 29.451939 C 186.776288 29.451939 183.557538 26.22798 183.557538 22.19673 Z M 225.672124 22.25923 C 225.672124 24.972772 226.849207 27.462355 228.531499 29.25923 C 230.234624 31.050897 232.703374 32.134231 235.359625 32.134231 C 239.927333 32.134231 243.510667 29.113397 244.630459 24.66548 L 241.854417 24.66548 C 240.849208 27.63423 238.328375 29.342564 235.359625 29.342564 C 233.484624 29.342564 231.609624 28.556105 230.375249 27.269647 C 229.146083 25.97798 228.416916 24.212355 228.416916 22.25923 C 228.416916 20.243605 229.172124 18.504021 230.406499 17.212355 C 231.635666 15.931105 233.484624 15.035271 235.359625 15.035271 C 238.245041 15.035271 240.651292 16.597771 241.68775 19.54048 L 244.484625 19.54048 C 243.364833 15.113396 239.838792 12.227979 235.359625 12.227979 C 232.703374 12.227979 230.151291 13.462354 228.442957 15.233188 C 226.760666 17.024855 225.672124 19.483188 225.672124 22.25923 Z M 282.453378 29.170689 L 273.354419 29.170689 L 273.354419 23.405063 L 282.229419 23.405063 L 282.229419 20.550897 L 273.354419 20.550897 L 273.354419 15.035271 L 282.427336 15.035271 L 282.427336 12.201938 L 270.500252 12.201938 L 270.500252 31.998814 L 282.453378 31.998814 Z M 315.666922 22.061313 L 312.35963 22.061313 L 312.35963 23.405063 L 319.500255 31.998814 L 323.166922 31.998814 L 316.979422 24.639438 C 320.344005 24.050897 322.052339 21.41548 322.052339 18.644646 C 322.052339 15.54048 319.916922 12.149854 315.666922 12.149854 L 308.521088 12.149854 L 308.521088 31.998814 L 311.323171 31.998814 L 311.323171 15.004021 L 315.666922 15.004021 C 318.04713 15.004021 319.219005 16.962355 319.219005 18.644646 C 319.219005 20.35298 318.04713 22.061313 315.666922 22.061313 Z M 351.307549 14.889438 L 351.307549 31.998814 L 354.140882 31.998814 L 354.140882 14.889438 L 360.047133 14.889438 L 360.047133 12.201938 L 345.375257 12.201938 L 345.375257 14.889438 Z M 351.307549 14.889438 " stroke="#ffffff" stroke-width="2.170008" stroke-opacity="1" stroke-miterlimit="4"/><g fill="#000000" fill-opacity="1"><g transform="translate(47.652167, 197.399327)"><g><path d="M 7.9375 -6.363281 L 7.9375 -14.804688 L 1.847656 -14.804688 L 1.847656 -12.871094 L 5.816406 -12.871094 L 5.816406 -6.363281 C 5.816406 -3.613281 4.683594 -1.890625 0.902344 -1.890625 C 0.671875 -1.890625 0.421875 -1.890625 0.167969 -1.910156 L 0.167969 0.0859375 C 0.378906 0.0859375 0.609375 0.105469 0.796875 0.105469 C 5.984375 0.105469 7.9375 -2.164062 7.9375 -6.363281 Z M 7.9375 -6.363281 "/></g></g></g><g fill="#000000" fill-opacity="1"><g transform="translate(74.007262, 197.399327)"><g><path d="M 3.632812 -3.71875 L 9.597656 -3.71875 L 11.003906 0 L 13.273438 0 L 7.371094 -14.890625 L 5.816406 -14.890625 L -0.0859375 0 L 2.203125 0 Z M 8.820312 -5.710938 L 4.410156 -5.710938 L 6.613281 -11.507812 Z M 8.820312 -5.710938 "/></g></g></g><g fill="#000000" fill-opacity="1"><g transform="translate(104.121375, 197.399327)"><g><path d="M 10.835938 -2.121094 L 3.925781 -2.121094 L 3.925781 -14.699219 L 1.804688 -14.699219 L 1.804688 0 L 10.835938 0 Z M 10.835938 -2.121094 "/></g></g></g><g fill="#000000" fill-opacity="1"><g transform="translate(131.862475, 197.399327)"><g><path d="M 0.820312 -7.308594 C 0.820312 -5.269531 1.699219 -3.402344 2.960938 -2.058594 C 4.242188 -0.714844 6.089844 0.105469 8.085938 0.105469 C 11.507812 0.105469 14.195312 -2.164062 15.035156 -5.503906 L 12.957031 -5.503906 C 12.199219 -3.277344 10.3125 -1.996094 8.085938 -1.996094 C 6.679688 -1.996094 5.269531 -2.582031 4.347656 -3.550781 C 3.421875 -4.515625 2.878906 -5.839844 2.878906 -7.308594 C 2.878906 -8.820312 3.445312 -10.121094 4.367188 -11.089844 C 5.292969 -12.054688 6.679688 -12.726562 8.085938 -12.726562 C 10.246094 -12.726562 12.054688 -11.550781 12.832031 -9.34375 L 14.929688 -9.34375 C 14.089844 -12.664062 11.445312 -14.824219 8.085938 -14.824219 C 6.089844 -14.824219 4.179688 -13.902344 2.898438 -12.578125 C 1.636719 -11.234375 0.820312 -9.386719 0.820312 -7.308594 Z M 0.820312 -7.308594 "/></g></g></g><g fill="#000000" fill-opacity="1"><g transform="translate(164.4966, 197.399327)"><g><path d="M 0.734375 -7.351562 C 0.734375 -3.109375 4.117188 0.273438 8.359375 0.273438 C 12.601562 0.273438 16.003906 -3.109375 16.003906 -7.351562 C 16.003906 -11.59375 12.601562 -14.992188 8.359375 -14.992188 C 4.117188 -14.992188 0.734375 -11.59375 0.734375 -7.351562 Z M 2.917969 -7.351562 C 2.917969 -10.375 5.335938 -12.808594 8.359375 -12.808594 C 11.382812 -12.808594 13.816406 -10.375 13.816406 -7.351562 C 13.816406 -4.324219 11.382812 -1.910156 8.359375 -1.910156 C 5.335938 -1.910156 2.917969 -4.324219 2.917969 -7.351562 Z M 2.917969 -7.351562 "/></g></g></g><g fill="#000000" fill-opacity="1"><g transform="translate(198.180737, 197.399327)"><g><path d="M 0.820312 -7.308594 C 0.820312 -5.269531 1.699219 -3.402344 2.960938 -2.058594 C 4.242188 -0.714844 6.089844 0.105469 8.085938 0.105469 C 11.507812 0.105469 14.195312 -2.164062 15.035156 -5.503906 L 12.957031 -5.503906 C 12.199219 -3.277344 10.3125 -1.996094 8.085938 -1.996094 C 6.679688 -1.996094 5.269531 -2.582031 4.347656 -3.550781 C 3.421875 -4.515625 2.878906 -5.839844 2.878906 -7.308594 C 2.878906 -8.820312 3.445312 -10.121094 4.367188 -11.089844 C 5.292969 -12.054688 6.679688 -12.726562 8.085938 -12.726562 C 10.246094 -12.726562 12.054688 -11.550781 12.832031 -9.34375 L 14.929688 -9.34375 C 14.089844 -12.664062 11.445312 -14.824219 8.085938 -14.824219 C 6.089844 -14.824219 4.179688 -13.902344 2.898438 -12.578125 C 1.636719 -11.234375 0.820312 -9.386719 0.820312 -7.308594 Z M 0.820312 -7.308594 "/></g></g></g><g fill="#000000" fill-opacity="1"><g transform="translate(230.814867, 197.399327)"><g><path d="M 10.773438 -2.121094 L 3.949219 -2.121094 L 3.949219 -6.445312 L 10.605469 -6.445312 L 10.605469 -8.589844 L 3.949219 -8.589844 L 3.949219 -12.726562 L 10.753906 -12.726562 L 10.753906 -14.847656 L 1.804688 -14.847656 L 1.804688 0 L 10.773438 0 Z M 10.773438 -2.121094 "/></g></g></g><g fill="#000000" fill-opacity="1"><g transform="translate(259.33297, 197.399327)"><g><path d="M 7.160156 -7.453125 L 4.683594 -7.453125 L 4.683594 -6.445312 L 10.039062 0 L 12.789062 0 L 8.148438 -5.523438 C 10.667969 -5.964844 11.949219 -7.9375 11.949219 -10.015625 C 11.949219 -12.347656 10.351562 -14.890625 7.160156 -14.890625 L 1.804688 -14.890625 L 1.804688 0 L 3.90625 0 L 3.90625 -12.746094 L 7.160156 -12.746094 C 8.945312 -12.746094 9.828125 -11.277344 9.828125 -10.015625 C 9.828125 -8.734375 8.945312 -7.453125 7.160156 -7.453125 Z M 7.160156 -7.453125 "/></g></g></g><g fill="#000000" fill-opacity="1"><g transform="translate(288.649069, 197.399327)"><g><path d="M 4.578125 -12.832031 L 4.578125 0 L 6.699219 0 L 6.699219 -12.832031 L 11.128906 -12.832031 L 11.128906 -14.847656 L 0.125 -14.847656 L 0.125 -12.832031 Z M 4.578125 -12.832031 "/></g></g></g></svg>